<svg xmlns="http://www.w3.org/2000/svg" width="900" height="1400" viewBox="0 0 900 1400"><defs><linearGradient id="b" x1="0" y1="0" x2="1" y2="1"><stop offset="0" stop-color="#08142f"/><stop offset="1" stop-color="#18245f"/></linearGradient><linearGradient id="a" x1="0" y1="0" x2="1" y2="1"><stop offset="0" stop-color="#24c8ff"/><stop offset="1" stop-color="#7a58ff"/></linearGradient></defs><rect width="900" height="1400" rx="80" fill="#050914"/><rect x="40" y="40" width="820" height="1320" rx="62" fill="url(#b)"/><rect x="95" y="120" width="460" height="42" rx="16" fill="#fff" opacity=".92"/><rect x="95" y="184" width="340" height="24" rx="12" fill="#aebce4"/><rect x="95" y="255" width="710" height="430" rx="44" fill="#101b45"/><circle cx="450" cy="500" r="112" fill="none" stroke="#273661" stroke-width="32"/><path d="M450 388a112 112 0 1 1-96 170" fill="none" stroke="url(#a)" stroke-width="32" stroke-linecap="round"/><rect x="95" y="745" width="710" height="128" rx="32" fill="url(#a)"/><rect x="95" y="910" width="335" height="138" rx="32" fill="#101b45"/><rect x="470" y="910" width="335" height="138" rx="32" fill="#101b45"/><rect x="95" y="1280" width="710" height="78" rx="34" fill="#0c1638"/></svg>