<svg xmlns="http://www.w3.org/2000/svg" width="1024" height="1024" viewBox="0 0 1024 1024"><defs><linearGradient id="cardBlue" x1="0" y1="0" x2="1" y2="1"><stop offset="0" stop-color="#25d8ff"/><stop offset="1" stop-color="#8d5cff"/></linearGradient><linearGradient id="cardWhite" x1="0" y1="0" x2="1" y2="1"><stop offset="0" stop-color="#eef6ff"/><stop offset="1" stop-color="#dfe7ff"/></linearGradient><filter id="shadow" x="-35%" y="-35%" width="170%" height="170%"><feDropShadow dx="0" dy="28" stdDeviation="26" flood-color="#020714" flood-opacity="0.52"/></filter></defs><g filter="url(#shadow)"><rect x="270" y="210" width="484" height="484" rx="125" fill="#0d1839"/><rect x="338" y="335" width="205" height="270" rx="46" fill="url(#cardBlue)" opacity=".9" transform="rotate(-11 440.5 470)"/><rect x="468" y="255" width="205" height="270" rx="46" fill="url(#cardWhite)" transform="rotate(10 570.5 390)"/><circle cx="512" cy="350" r="37" fill="#5b35d5"/><path d="M455 454c13-38 43-60 76-60s63 22 76 60c5 15-6 31-22 31H477c-16 0-27-16-22-31z" fill="#5b35d5"/><path d="M350 553c92 70 232 70 324 0" fill="none" stroke="#25d8ff" stroke-width="34" stroke-linecap="round"/><path d="M379 524l-49 32 49 29" fill="none" stroke="#25d8ff" stroke-width="28" stroke-linecap="round" stroke-linejoin="round"/></g></svg>