<svg xmlns="http://www.w3.org/2000/svg" width="1200" height="900" viewBox="0 0 1200 900"><defs><linearGradient id="bg" x1="120" y1="70" x2="1080" y2="830" gradientUnits="userSpaceOnUse"><stop offset="0" stop-color="#061126"/><stop offset="0.48" stop-color="#111f4c"/><stop offset="1" stop-color="#5b35d5"/></linearGradient><linearGradient id="g1" x1="0" y1="0" x2="1" y2="1"><stop offset="0" stop-color="#25d7ff"/><stop offset="1" stop-color="#8d5cff"/></linearGradient><linearGradient id="g2" x1="0" y1="0" x2="1" y2="1"><stop offset="0" stop-color="#eef6ff"/><stop offset="1" stop-color="#dfe7ff"/></linearGradient><filter id="s" x="-40%" y="-40%" width="180%" height="180%"><feDropShadow dx="0" dy="30" stdDeviation="28" flood-color="#020714" flood-opacity="0.55"/></filter><filter id="glow" x="-60%" y="-60%" width="220%" height="220%"><feGaussianBlur stdDeviation="28" result="b"/><feMerge><feMergeNode in="b"/><feMergeNode in="SourceGraphic"/></feMerge></filter></defs><rect width="1200" height="900" rx="64" fill="url(#bg)"/><circle cx="248" cy="178" r="185" fill="#25d7ff" opacity=".10"/><circle cx="962" cy="725" r="260" fill="#8d5cff" opacity=".14"/><g filter="url(#s)"><rect x="416" y="128" width="368" height="368" rx="96" fill="#0d1839"/><rect x="486" y="230" width="174" height="214" rx="36" fill="url(#g1)" opacity=".88" transform="rotate(-11 573 337)"/><rect x="546" y="190" width="174" height="214" rx="36" fill="url(#g2)" transform="rotate(10 633 297)"/><circle cx="634" cy="256" r="37" fill="#5b35d5"/><path d="M577 360c13-38 43-60 76-60s63 22 76 60c5 15-6 31-22 31H599c-16 0-27-16-22-31z" fill="#5b35d5"/><path d="M510 425c70 53 178 53 250 0" fill="none" stroke="#25d7ff" stroke-width="23" stroke-linecap="round"/><path d="M731 409l31 17-31 17" fill="none" stroke="#25d7ff" stroke-width="19" stroke-linecap="round" stroke-linejoin="round"/></g><g filter="url(#glow)" opacity=".9"><circle cx="772" cy="138" r="8" fill="#25d7ff"/><circle cx="411" cy="518" r="7" fill="#8d5cff"/><circle cx="843" cy="504" r="6" fill="#25d7ff"/></g><text x="600" y="638" text-anchor="middle" font-family="Inter, Arial, sans-serif" font-size="78" font-weight="800" letter-spacing="-2" fill="#ffffff">ContacteDuplicate</text><text x="600" y="700" text-anchor="middle" font-family="Inter, Arial, sans-serif" font-size="29" font-weight="500" fill="#c9d8ff">Gaseste. Verifica. Uneste contactele duplicate.</text></svg>