<svg xmlns="http://www.w3.org/2000/svg" width="1200" height="900" viewBox="0 0 1200 900"><defs><linearGradient id="bg" x1="0" y1="0" x2="1" y2="1"><stop offset="0" stop-color="#08142f"/><stop offset="1" stop-color="#5b35d5"/></linearGradient><linearGradient id="a" x1="0" y1="0" x2="1" y2="1"><stop offset="0" stop-color="#24c8ff"/><stop offset="1" stop-color="#8d5cff"/></linearGradient></defs><rect width="1200" height="900" rx="64" fill="url(#bg)"/><rect x="420" y="150" width="360" height="360" rx="92" fill="#101b45"/><rect x="492" y="255" width="168" height="205" rx="34" fill="url(#a)" transform="rotate(-10 576 357)"/><rect x="554" y="220" width="168" height="205" rx="34" fill="#eef4ff" transform="rotate(10 638 322)"/><circle cx="638" cy="285" r="36" fill="#5b35d5"/><path d="M581 388c11-39 42-62 76-62s65 23 76 62c4 14-6 29-21 29H602c-15 0-25-15-21-29z" fill="#5b35d5"/><path d="M516 440c68 49 172 49 240-2" fill="none" stroke="#24c8ff" stroke-width="22" stroke-linecap="round"/></svg>