<svg xmlns="http://www.w3.org/2000/svg" width="1600" height="1100" viewBox="0 0 1600 1100"><defs><linearGradient id="bg" x1="0" y1="0" x2="1" y2="1"><stop offset="0" stop-color="#f5f8ff"/><stop offset="1" stop-color="#e9edff"/></linearGradient><linearGradient id="a" x1="0" y1="0" x2="1" y2="1"><stop offset="0" stop-color="#24c8ff"/><stop offset="1" stop-color="#6c4dff"/></linearGradient></defs><rect width="1600" height="1100" rx="42" fill="url(#bg)"/><g transform="translate(170 190)"><rect width="335" height="720" rx="48" fill="#0b1230"/><rect x="22" y="24" width="291" height="672" rx="34" fill="#101b45"/><circle cx="168" cy="270" r="92" fill="none" stroke="#25335f" stroke-width="26"/><path d="M168 178a92 92 0 1 1-84 129" fill="none" stroke="url(#a)" stroke-width="26" stroke-linecap="round"/><rect x="44" y="430" width="247" height="74" rx="22" fill="url(#a)"/><rect x="44" y="530" width="247" height="74" rx="22" fill="#182557"/></g><g transform="translate(632 190)"><rect width="335" height="720" rx="48" fill="#ffffff"/><rect x="22" y="24" width="291" height="672" rx="34" fill="#fbfcff"/><rect x="44" y="130" width="247" height="52" rx="18" fill="#edf2ff"/><rect x="44" y="230" width="247" height="92" rx="24" fill="#ffffff" stroke="#e1e7f5"/><circle cx="88" cy="276" r="24" fill="url(#a)"/><rect x="44" y="352" width="247" height="92" rx="24" fill="#ffffff" stroke="#e1e7f5"/><circle cx="88" cy="398" r="24" fill="#30c794"/><rect x="44" y="474" width="247" height="92" rx="24" fill="#fff7e8" stroke="#ffe0a6"/><circle cx="88" cy="520" r="24" fill="#ffb020"/></g><g transform="translate(1094 190)"><rect width="335" height="720" rx="48" fill="#ffffff"/><rect x="22" y="24" width="291" height="672" rx="34" fill="#fbfcff"/><rect x="44" y="150" width="247" height="104" rx="24" fill="#edf7ff"/><rect x="44" y="305" width="247" height="62" rx="18" fill="#ffffff" stroke="#e1e7f5"/><rect x="44" y="392" width="247" height="62" rx="18" fill="#ffffff" stroke="#e1e7f5"/><rect x="44" y="510" width="247" height="78" rx="22" fill="url(#a)"/></g></svg>